<svg xmlns="http://www.w3.org/2000/svg" viewBox="0 0 314.98 380.42"><defs><style>.cls-1{fill:#fff;}</style></defs><title>Asset 1</title><g id="Layer_2" data-name="Layer 2"><g id="Layer_1-2" data-name="Layer 1"><path class="cls-1" d="M156.08,234.05a61.51,61.51,0,0,1,.35-86.62l73.89-73.89,43.13,43.13Z"/><path d="M230.32,74.25l42.43,42.42L156.08,233.34a61.06,61.06,0,0,1,.7-85.55l73.54-73.54m0-1.42-74.25,74.25a62,62,0,0,0,0,87.68h0L274.16,116.67,230.32,72.83Z"/><path class="cls-1" d="M175.17,128.69l55.15-55.15,61.17,61.16a78.51,78.51,0,0,1,.35,110.67Z"/><path d="M230.32,74.25l60.81,60.81a78,78,0,0,1,.7,109.59l-116-116,54.45-54.44m0-1.42-55.86,55.86L291.84,246.07h0a79,79,0,0,0,0-111.72L230.32,72.83Z"/><path class="cls-1" d="M102.33,324.56l189.51-189.5a78.59,78.59,0,0,1-.35,110.66l-134,134Z"/><path d="M291.83,135.77a78,78,0,0,1-.7,109.6L157.49,379,103,324.56,291.83,135.77m0-1.42L101.63,324.56l55.86,55.86L291.84,246.07a79,79,0,0,0,0-111.72Z"/><path class="cls-1" d="M23.49,245.72a78.58,78.58,0,0,1-.35-110.66l134,134a78.51,78.51,0,0,1,.35,110.67Z"/><path d="M23.14,135.77,156.78,269.41a78.08,78.08,0,0,1,.7,109.59L23.85,245.37a78,78,0,0,1-.71-109.6m0-1.42h0a79,79,0,0,0,0,111.72L157.49,380.42h0a79,79,0,0,0,0-111.72L23.14,134.35Z"/><path class="cls-1" d="M23.14,245.37a78.59,78.59,0,0,1,.35-110.67l134-134,55.15,55.15Z"/><path d="M157.49,1.41l54.45,54.45L23.14,244.65a78.08,78.08,0,0,1,.71-109.59L157.49,1.41m0-1.41L23.14,134.35a79,79,0,0,0,0,111.72h0L213.35,55.86,157.49,0Z"/></g></g></svg>