<svg xmlns="http://www.w3.org/2000/svg" viewBox="0 0 762.93 764.05"><title>globe</title><g id="Layer_2" data-name="Layer 2"><g id="Layer_1-2" data-name="Layer 1"><path d="M263.06,68.11h0l.16-.11-.17.11m14.37-8.64a113.74,113.74,0,0,0-13.35,8,117.67,117.67,0,0,1,13.83-7.56,127.51,127.51,0,0,1,14.66-5.67c2.57-.74,6-1.73,8.59-2.38l-.35-1.12c-2.62.77-6.12,1.79-8.72,2.65a126.87,126.87,0,0,0-14.66,6.13M238,94.11l2.3-.18c1.1-2.1,2.64-4.86,3.9-6.86a65.69,65.69,0,0,1,8.14-9.81,85,85,0,0,1,10-8.58l-.05,0c-6.37,4.58-6.88,5-10.78,8.45-5.28,5.25-5.59,5.56-9,9.94-1.41,2.08-3.25,4.89-4.52,7.06m-4.48,28,4.14-1.79a34.52,34.52,0,0,1-1.13-13.08A40.78,40.78,0,0,1,240,94.56l-2.36.23c-2.33,5-3.61,7.76-4.61,13.3-.56,5.48-.81,8,.49,14m68.34-71.63.29,1.15a130.47,130.47,0,0,1,20.66-3,111.92,111.92,0,0,1,18.09.33l1.63-2.22a124.23,124.23,0,0,0-40.67,3.72m-50.66,95.35,4.21-4h0c-13-8-16.31-17.39-17.54-20.94l-4.15,1.87c2.49,7.59,5.51,14.56,17.33,22.93l.12.08s0,0,.06.05m92.32-99L341.74,49c12.94,1.53,23.18,4.91,32.22,10.65l4.64-2.13c-10.29-6.08-20.79-9.29-35.12-10.74M379.34,58l-4.75,2.08c12.5,8.4,15.36,18.12,16.3,21.32l6.89-.59c-1.92-6-5.91-14.82-18.36-22.76,0,0-.06,0-.08,0m-92.65,99.59,2.05-5.59-1.14-.11c-12.42-1.33-22.45-4.41-31.58-9.7l-4.14,4.07c10,6.28,20.41,9.67,34.81,11.33m42.4-3.15-1.44-5.72a126.48,126.48,0,0,1-20,3.28,109.12,109.12,0,0,1-18.07.07l-1.91,5.62c14.42,1.21,26.42.27,41.4-3.25m68.88-73L391,82c1.92,8.22.74,16.75-3.5,25.36l7.12,1.8c2.2-5.1,3.41-7.9,4.21-13.42a36,36,0,0,0-.9-14.23m-3.66,28.36-7.08-1.91c-4.32,7.51-9,14.51-22.38,24.13,1.56,1.28,3.65,3,5.21,4.28,7.5-5.64,16.83-12.65,24.25-26.5M369.18,137c-1.52-1.32-3.54-3.08-5.07-4.39l-.3.21c-7.45,4.77-16.72,10.71-35.26,15.72l1.61,5.68c11.74-3.28,23.54-7,38.72-17l.3-.2"/><path d="M242.69,38.05c-14.1,7.35-16.64,8.67-28.08,16.21,13.67-8.51,15.77-9.82,28.47-16.07,14.82-6.58,17.09-7.6,30.48-12.15,5.1-1.52,11.9-3.58,17-4.93l-.21-.53c-5.17,1.48-12.07,3.43-17.18,5.08C261,30.08,252.88,33,242.69,38.05M162,109.32l2-.66c2.34-4.19,5.56-9.72,8.19-13.73,8.5-11.22,9-11.89,17.44-20.39,11-10.06,11.95-10.88,20.54-17.16h-.06c-13.05,9.78-13.83,10.37-21.2,17.24C178.14,85.55,177.5,86.21,170.69,95.3c-2.73,4.13-6.29,9.7-8.71,14m-8.67,57.42,3.6-2.48c-1.81-8.71-3.12-15-1.8-27.1,1.75-9.92,2.72-15.39,7.61-26l-2.07.74c-4.46,10.23-6.92,15.86-8.59,26.77-1,10.81-1.44,16.23,1.25,28M294.25,19.6l.14.58c14.38-3.05,23.89-5.07,42.54-6.51a241.24,241.24,0,0,1,32.87-.05c1.88.15,4.68.27,6.23-.8-28.23-2.09-52.69-.06-81.78,6.78M189.68,215.12l3.63-4.78c-12.27-8.64-27.54-19.4-35.72-43.74L154,169.22c4.17,11.83,9.89,28,35.71,45.9m190.09-202-1.85,1.17C410.49,18,431.5,27.52,443.4,34.84c1.6,1,4.42.6,6.27.25-34.76-20.57-69.67-22-69.9-21.93m-117.66,226,1.61-6.45-2.37-.25c-25.85-3-46.64-9.48-65.42-20.5l-3.53,4.92c20.3,12.29,41.14,19,69.71,22.28M452.42,36.84l-4.68.75h0c18.41,12.8,28.68,26,34.33,44.16l6.64.75c-6.11-18.87-17-32.53-36.31-45.68h0M348.28,232.9c-.49-2-1.13-4.69-1.62-6.69-13.65,3-23.51,5.17-41.74,6.73a233.39,233.39,0,0,1-37.66.09l-1.39,6.51c28.51,2.2,53.15.21,82.41-6.64M489.44,85l-6.71-.91c4,17.26,1.66,35.06-7,52.9,2.08.91,4.85,2.12,6.91,3,4.37-10.25,6.78-15.9,8.34-26.65A73.08,73.08,0,0,0,489.44,85m-8.16,57.69c-2-1-4.77-2.27-6.83-3.22-7.12,12.24-16.86,29-46.64,50.45,1.56,1.62,3.63,3.76,5.18,5.39,14.21-10.75,33.67-25.48,48.29-52.62M429.73,197.6c-1.49-1.66-3.47-3.89-5-5.54-15,9.58-35.58,22.7-74.4,33.21l1.87,6.64c18.95-5.39,44.91-12.78,77.5-34.31"/><path d="M216.36,37.41C193.4,49.25,192,50,175.26,60.88c21.61-13.59,22.91-14.4,41.37-23.59L231,30.77,224,33.83l-7.68,3.58M99.5,140.62l1.53-1.08c3.4-5.93,8-13.78,11.82-19.46,12.53-16.36,13.28-17.34,25.67-29.72C154.66,75.83,156,74.65,168,65.94l-.06,0C149.23,80.22,148.11,81.08,138,90.67c-15.5,16-16.43,16.91-26.26,30.15-3.81,5.85-8.81,13.71-12.21,19.8M86.93,224l2.83-3c-2.4-12.24-4.3-21.91-2.29-39.17,2.66-14.43,4.13-22.38,11.16-37.4L97,145.66c-6.25,14.77-9.69,22.91-11.9,38.28-1.31,15.59-2,23.41,1.86,40.08M366.36.3,353.24,1l.49,0C372.06-.15,388-.24,401.16.74c2.46.19,5.74.52,8.21.46a352.85,352.85,0,0,0-43-.9M139.52,294.17l2.81-5.25c-16.77-12-39.74-28.49-51.26-63.34l-2.85,3.2c6.2,17,14.7,40.25,51.3,65.39m277-292.29-1.83,0c47,5.33,77.52,18.94,94.81,29.42a18.58,18.58,0,0,0,6.65,2.08c-47.4-28-94.42-31.23-99.63-31.52M521.4,36.76l-4.3-.64C543.28,54,559.15,74.28,567,100l6,2.05c-14.82-45.25-51.25-65.11-51.6-65.25M244.31,329.19l1.08-6.93-3.43-.37c-37.36-4.41-67.4-13.88-94.53-29.79l-2.67,5.45c29.17,17.37,58.94,26.83,99.55,31.64m330-222.41-6-2.25c7.9,34.48-2.9,59.82-10,76.58,1.87,1.23,4.38,2.86,6.25,4.11,8-19.06,8-19.06,11.79-37.93,1.9-14.83,1.34-26.56-1.94-40.51M368.94,320.34c-.51-2.18-1.18-5.08-1.69-7.26-19.22,4.17-34.41,7.46-60.49,9.66a346.42,346.42,0,0,1-54.46.14l-.8,7c28.78,2.12,65.25,2.65,117.44-9.53m193-130c-1.84-1.3-4.3-3-6.15-4.33-10.47,17.87-24.81,42.35-67.5,73.12,1.45,1.85,3.38,4.3,4.82,6.15,20.34-15.47,48.18-36.65,68.83-74.94m-75.06,79.26c-1.37-1.9-3.18-4.45-4.56-6.35-22,13.93-52.12,33-107.81,48.06.6,2.15,1.41,5,2,7.19,27.2-7.83,64.45-18.54,110.36-48.9"/><path d="M53.81,186.41l1-1.44c4.22-7.24,9.93-16.85,14.62-23.79l.46-.65L68,163.19c-4.39,6.88-10.24,16.07-14.19,23.22M37.91,290.92l1.88-3.36C37,272.8,34.62,260.07,37.2,238.85c4.4-23.34,4.4-23.34,13.91-46.4L50,194c-9.88,23.84-9.88,23.84-14.42,47.32-1.58,19.42-2.37,29.17,2.32,49.56m65.54,87.86,1.79-5.4c-20.85-15.14-49.4-35.87-63.47-78.83l-1.9,3.53c7.44,19.9,18.67,50,63.58,80.7M566.15,47.67l-8.35-4.49.28.15c5.57,3,11,6.25,16.52,9.24-2.53-1.48-5.88-3.5-8.45-4.9m16.38,10-3.63-2c31.56,21.64,52.2,47.4,61.35,76.55.75,2.39,3.7,4.65,5.8,6-15.55-46.95-49.6-72-63.52-80.61M234.36,422.8l.42-6.94-4.25-.46c-46.4-5.62-83.73-17.42-117.48-37.14-.5,1.68-1.17,3.92-1.68,5.6,36.2,21.3,73,32.94,123,38.94M390.12,412c-.51-2.19-1.18-5.11-1.69-7.3-24.14,5.17-43.2,9.26-75.31,11.93-26.14,1.82-42.59,1.87-67.72.2l-.2,7c33.56,2.38,80.36,3.18,144.92-11.83M648,145.44l-5-3.4c9.7,43-3.61,74.47-12.42,95.27,1.55,1.48,3.63,3.43,5.17,4.92,9.72-23.29,9.91-23.74,14.44-46.76,4-30.78-2.13-49.92-2.2-50M631.93,249.87c-1.53-1.53-3.55-3.58-5.09-5.1-12.47,21.13-31.32,53.06-83.94,91,1.23,2,2.88,4.56,4.1,6.53,25.18-19.25,59.66-45.61,84.93-92.45m-94.32,98.95c-1.17-2-2.72-4.68-3.89-6.69-27.64,17.4-65.5,41.22-134.2,59.77.58,2.17,1.37,5.08,2,7.25,31.86-9.23,80-23.2,136.14-60.33"/><path d="M9.83,363.17l.84-3.54c-3.46-18.91-5.74-31.4-2.76-55.35,1.21-6.31,2.63-14.78,4.23-21L11,287.83C9.8,293.6,8,301.24,7.19,307.06c-1.76,22.09-2.64,33.18,2.64,56.11M84.41,463.38l.68-5.31C61.4,440.75,29,417,13.15,368.44l-.85,3.69c8.56,22.58,21.49,56.7,72.11,91.25m149.05,50.27-.26-6.59-4.83-.54c-52.69-6.46-95.1-19.9-133.46-42.28l-.6,5.47c41.05,24,82.67,37.11,139.15,43.94M672,134l-5.95-6.8.74.83c15,17.33,25.59,35.4,31.42,53.72a25,25,0,0,0,4.63,7.45A156,156,0,0,0,672,134M410.85,501.51l-1.64-7c-26.49,5.65-49.36,10.52-85.65,13.51-29.71,2.06-48.42,2.12-77,.24l.39,6.65c38,2.63,91,3.49,163.87-13.42M705.31,198.18l-3.66-4.38c11,49-4.1,84.73-14.06,108.34l3.81,5.49c11-26.47,11.21-27,16.28-52.85,4.55-34.65-2.29-56.44-2.37-56.6m-18.69,119-3.77-5.6c-14.3,24.11-35.92,60.55-95.42,103.49,1,2,2.22,4.61,3.16,6.59,26.91-20.63,67.58-51.8,96-104.48M578.89,429.73c-.91-2-2.11-4.69-3-6.69-31.61,19.83-74.91,47-152.64,68l1.79,7c36.14-10.53,90.76-26.45,153.88-68.23"/><path d="M4.27,436.58,4,433.09C2.6,425.29.73,414.87,0,407l.32,4.44.08,1c1,7.26,2.27,17,3.87,24.12M83.5,543,83,538.16c-23.73-17.44-59.6-43.78-76.29-95.34L7,446.43c9.14,23.93,23,60.09,76.5,96.55M735.05,237.59l-2.37-5.72.65,1.57c2.43,6.09,4.39,12.36,6.88,18.43-3-9-3-9-5.16-14.28M241.77,596.37l-.92-5.8-5.14-.57c-56-6.92-101.11-21.23-141.86-45l.54,4.95c43.55,25.33,87.62,39.22,147.38,46.45M742.89,261.72l-2.09-5.09c11.64,52.22-4.32,90.13-14.88,115.22l2.19,5.68c11.64-28.07,11.86-28.61,17.21-55.9,4.8-36.32-2.13-59-2.43-59.91M430,583.54l-1.45-6.2c-28.22,6-52.6,11.18-91.11,14.33-31.59,2.18-51.48,2.24-81.84.25l1,5.85c40.26,2.76,96.37,3.65,173.4-14.23M722.86,388l-2.18-5.76c-15.25,25.7-38.31,64.52-101.48,110.12.61,1.86,1.43,4.33,2,6.19,28.5-21.86,71.57-54.91,101.64-110.55M608.38,507.44c-.59-1.88-1.36-4.38-2-6.26-31.79,19.91-79.85,50-162.37,72.26l1.53,6.2c38.29-11.19,96.15-28.09,162.8-72.2"/><path d="M29.27,530.83c11.64,23.58,24.83,50.3,71.55,82.79l-1.61-4.09C73.52,590.62,47,571.07,26.91,525.07l.57,1.41,1.79,4.35m224.44,135.4c1.54.19,3.6.41,5.14.59l-1.55-4.68L247,660.92c-55.89-7.88-95.58-20.78-137-44.55l1.61,4.15c15,8.88,60.68,35.9,142,45.71m101.82,2A629.79,629.79,0,0,0,446.67,654l-1.21-5.05c-28.3,6-52.74,11.19-91.32,14.35-31.67,2.17-51.59,2.23-82,.22l1.49,4.72c12.29.84,44.93,3.07,81.91,0M762.21,352.66l-.25-3.09.26,3.57c2.07,40.46-10.41,70.12-18.67,89.75l.47,5.58c11.62-28,11.84-28.54,17.18-55.79a169.63,169.63,0,0,0,1-40M637.34,569.19c28.44-21.81,71.43-54.78,101.45-110.32l-.49-5.54C723,479.09,699.91,518,636.6,563.72c.23,1.64.53,3.83.74,5.47m-175.21,80.9c38.21-11.16,95.94-28,162.44-72.06-.24-1.63-.55-3.8-.81-5.43-31.88,19.95-80,50.11-162.76,72.4l1.13,5.09"/><path d="M95.83,636.16c18.22,18.34,20.13,20.25,39.22,33.69l-2.66-3.1c-24.07-17.73-25-18.42-41.44-36.17l4.88,5.58M278.54,719c1.45.18,3.38.39,4.83.55l-2.06-3.27-9.7-1.15c-52.85-7.44-90.32-19.66-129.35-42.17l2.62,3.12C159,684.45,202,709.86,278.54,719m95.24,1.79a589.32,589.32,0,0,0,85.71-13.41l-.86-3.61c-26.69,5.68-49.75,10.59-86.32,13.58-29.94,2-48.77,2.09-77.51.17l1.95,3.29c11.55.79,42.24,2.89,77,0m378.5-247.36v0c-7.33,24.23-7.33,24.23-13.11,36.47l-1.31,5.1c3.9-9.34,8.76-22,11.82-31.62.78-3,1.85-6.93,2.59-9.92M637.73,628.11c28.33-21.68,67.12-51.39,95.41-103.71l1.26-5c-14.39,24.31-36.15,61-96.1,104.34-.17,1.32-.38,3.08-.57,4.39M473.45,703.89c35.87-10.46,90.07-26.28,152.73-67.78.13-1.29.32-3,.44-4.31-31.88,20-75.54,47.33-153.88,68.44l.71,3.65"/><path d="M309.86,751.58l4.26.48c-2.55-1.67-2.55-1.67-11-2.67-43.32-6.07-74.32-15.68-107-33.15l8.72,4.69.67.34c11.45,5.8,46.3,23.45,104.39,30.31m82.67,1.47a511.75,511.75,0,0,0,75.34-11.84c-.13-.5-.3-1.17-.42-1.68-27.52,5.58-45.7,9.26-76.39,11.79-26.49,1.79-43.15,1.81-68.55.08,5.07,3.85,49.65,3.36,70,1.65M690.16,607c2.09-3,4.91-6.87,7-9.85-22.53,30.29-34.83,43.45-72.86,72.27l-.22.39c-.6,1-1,1.66-1.62,2.65,22-16.81,44.79-34.18,67.75-65.46M479,738.42c31.41-9.14,78.89-22.94,134.26-59.62.73-1.25.93-1.6,1.63-2.89-28.07,17.63-66.5,41.77-136.12,60.51.05.46.12,1.06.17,1.51.14,0,0,.34.06.49"/><path d="M419.18,762.18c22.17-2.76,27.43-3.42,52-8.85l-.06-.15c-19.67,4.24-35.21,7.59-61.85,9.8-9,.61-13.58.91-25,1.07l11.84-.28c6.91-.43,16.13-.84,23-1.59M544,727.69l5.77-2.78c-29.09,13.36-37.71,16.81-71.13,26.38l-.26.23c24-6.92,24.91-7.19,38.42-12.27,8.21-3.34,19.17-7.8,27.2-11.56"/><path d="M166.87,65.87c10.22-6.58,27.51-14.67,59.51-9,11.07,2.22,20.62,4.77,36.68,11.25h0l4.25,1.81c8.81,3.93,13.43,6.18,22.45,11,9.42,5.17,14.06,7.89,23.67,13.86C303.61,88.65,298.92,86,289.57,81s-14-6.9-22.92-10.62l-4.36-1.71-.05,0c-12.76-4.68-23.12-7.83-38.32-10.09a129.56,129.56,0,0,0-13.8-1.19h-.06c-16.95-.23-29.14,2.25-42.08,8.56l-.06,0a74.29,74.29,0,0,0-9.37,5.71l8.32-5.8"/><path d="M39,212.15l4-7.86c1.89-3.48,4.24-7.82,7.48-12.87,1-1.5,2.32-3.52,3.34-5l1-1.44c3.72-5.1,5.59-7.67,10.82-13.78A195.56,195.56,0,0,1,83.9,152.93c6.39-5.44,8.44-7.09,15.6-12.31l1.53-1.08c14.44-9.83,31.81-20.29,60.95-30.22l2-.66c6.55-2.07,10.51-3.33,19.34-5.61A344,344,0,0,1,238,94.11l2.3-.18,5.22-.37c13.31-.74,19.85-.89,33.31-.75,13.71.35,20.83.74,34.65,1.92-14.29-1.19-21.11-1.54-34.73-1.76-13.82,0-20.39.22-33.51,1.14l-5.24.45-2.36.23a331.32,331.32,0,0,0-55.3,10.27c-6.92,2-11.1,3.18-19.58,6.13l-2.07.74c-17.39,6.48-38.35,15.42-62,32.51L97,145.66c-7,5.35-9.16,7.07-16,13.08a213.42,213.42,0,0,0-18.82,19.37c-4.22,5.09-6.33,7.65-11.08,14.34L50,194c-1,1.55-2.41,3.61-3.41,5.18A186.53,186.53,0,0,0,35.19,220L39,212.15"/><path d="M17,497.47l-2.52-8.33c-1.39-5-3.19-11.72-4.47-16.77l-.35-1.45a231.22,231.22,0,0,1-5.42-34.34L4,433.09C2.88,412,3.44,392,9.83,363.17l.84-3.54L12,354.47A280,280,0,0,1,34.68,296.9c1-1.79,2.24-4.2,3.23-6l1.88-3.36c3.74-6.41,6-10.28,11.28-18.32,4-5.92,10.12-14.88,19.71-26.67C77.05,235,79.39,232.23,86.93,224l2.83-3a409.81,409.81,0,0,1,63.55-54.27l3.6-2.48c6.38-4.28,11-7.37,19.72-12.71a486.25,486.25,0,0,1,56.85-29.49l4.14-1.79,4.63-2c14-5.69,20.85-8.24,35-13,14.36-4.64,21.81-6.81,36.23-10.57-14.9,3.91-22,6-36.19,10.72-14.38,5-21.22,7.64-34.85,13.39l-4.6,2-4.15,1.87a457,457,0,0,0-56.5,30.71c-6.59,4.26-11.35,7.35-19.56,13.17L154,169.22a410.59,410.59,0,0,0-62.9,56.36l-2.85,3.2c-6.59,7.59-9,10.42-15.92,19.25-4.54,6-11.39,15-19.42,27.71-4,6.5-6.48,10.42-11.11,18.81l-1.9,3.53c-.95,1.84-2.23,4.28-3.16,6.12C29,319.89,21,337.91,14.44,363.25l-1.29,5.19-.85,3.69c-4.56,21.69-7.26,42-5.57,70.69L7,446.43A235.17,235.17,0,0,0,12.49,481c1.69,6.76,2.14,8.58,4.54,16.51"/><path d="M110.06,616.37l1.61,4.15c6.46,15.64,14.63,32.82,30.59,52.46l2.62,3.12,2.55,2.87a161.93,161.93,0,0,0,36.36,30.16c-4.32-2.69-10.07-6.3-14.32-9.08a179.31,179.31,0,0,1-34.42-30.2l-2.66-3.1c-10.1-12.41-20.91-27.44-31.57-53.13l-1.61-4.09a250.33,250.33,0,0,1-9.86-32A287.7,287.7,0,0,1,83.5,543L83,538.16c-1.57-19-2.49-41.28,1.39-74.78l.68-5.31.72-5.19a457.74,457.74,0,0,1,15.54-67.51l2.1-6.59,1.79-5.4c2.49-7.22,4.29-12.43,8-21.91,3-7.41,7.46-18.61,14.6-33.79C132,309,133.88,305,139.52,294.17l2.81-5.25a586.24,586.24,0,0,1,47.35-73.8l3.63-4.78c4.45-5.73,8.3-10.68,14.62-18.29a577.59,577.59,0,0,1,43.23-46.27l4.21-4,3.06-2.85c10.67-9.7,16.22-14.48,27-23.26,11.24-8.89,16.73-13,28-21-11.39,8-17.11,12.38-27.86,21.07-11,9.16-16.22,13.78-26.57,23.52l-3,2.87-4.14,4.07A515.3,515.3,0,0,0,210,193.37c-4.29,5.5-8.34,10.69-14.09,18.6l-3.53,4.92a562.78,562.78,0,0,0-45,75.21l-2.67,5.45c-4.18,8.78-6.09,12.79-10.92,24-3.17,7.54-8,19-13.44,34.52-2.55,7.32-4.39,12.62-7.35,22.22l-1.68,5.6-1.9,6.66a475.13,475.13,0,0,0-13.92,68.53l-.64,5.19-.6,5.47c-2,20.79-3.43,44.3-.46,75.26l.54,4.95a298.64,298.64,0,0,0,6.08,34.61,258.92,258.92,0,0,0,9.59,31.84"/><path d="M272.13,663.49l1.49,4.72c3.38,10.2,9.68,29.18,21.18,49.33l1.95,3.29,1.47,2.38c5.85,9.19,23.66,37.14,51.88,39.59l-9-.84-4.51-.68c-18.16-4.4-34.16-13.18-53.25-41.71l-2.06-3.27c-4.51-7.56-12.92-21.63-22.46-49.48l-1.55-4.68c-3-9.54-5.1-16.4-8.73-31.3-2.43-10.7-4.09-18.36-6.8-34.47l-.92-5.8a702.94,702.94,0,0,1-7.39-76.92l-.26-6.59-.17-5c-.43-19.31-.61-41.46,1-72.57l.37-6.67.42-6.94c.52-7.52.93-13.46,1.8-23.48.79-8.17,2-20.51,4.13-37.43,1.23-9.37,1.84-14.07,3.6-25.76l1.08-6.93c4.19-25.84,8.63-49.85,16.72-83.09l1.61-6.45c1.56-6,3.16-12.25,5.55-20.8,3.38-11.77,8.5-29.55,17.42-54.33l2.05-5.59,1.13-3c4.47-11.7,6.82-17.51,11.43-28.26,4.78-10.81,7.27-16.15,12.14-26-5,10.19-7.35,15.29-11.91,26-4.59,11.14-6.73,16.7-10.88,28.32l-1,3-1.91,5.62c-3.51,10.72-8.83,26.92-15.58,54.49-1.45,6-2.94,12.18-4.85,20.85l-1.39,6.51c-5.05,24.43-9.29,48-13.57,83.34l-.8,7c-1,9.32-1.5,14-2.54,25.85-.68,8.25-1.7,20.71-2.55,37.57-.37,7.29-.68,13.58-1,23.54l-.2,7-.14,6.66c-.31,20-.38,42.61,1.26,72.78l.27,5,.39,6.65c1,14.56,2.83,41.67,8.64,77l1,5.85c2.06,11.4,3.57,19.41,7.12,34.48,1.72,7.23,4.32,18.15,8.39,31.24"/><path d="M461,645l1.13,5.09c2.27,10.25,6.49,29.33,10.61,50.15l.71,3.65.46,2.37c3.72,20.83,7.15,41.46,4.75,45l-.26.23-.15.07-7,1.77,0,0-.06-.15-.49-1.6c-.76-2.65-2.77-9.7-11.16-44.18l-.86-3.61c-4.46-18.59-4.46-18.59-12-49.82l-1.21-5.05q-3.75-15.58-7.49-31.16l-8-34.22-1.45-6.2c-5.67-24.36-10.39-44.58-17.72-75.83l-1.64-7-1.1-4.71C404.94,476,399,450.36,391.59,418.3l-1.47-6.3c-.51-2.19-1.18-5.11-1.69-7.3q-2.65-11.38-5.32-22.78c-1.74-7.61-4.65-20.36-8.41-36.66-2.82-12.23-5.74-24.81-5.76-24.92-.51-2.18-1.18-5.08-1.69-7.26-6-25.65-11.5-49.11-19-80.18-.49-2-1.13-4.69-1.62-6.69q-2.4-9.92-4.81-19.83c-2.58-10.69-6.88-28.6-12.76-51.94l-1.44-5.72L327,146c-2.85-11.15-4.27-16.67-6.94-26.84-2.73-10.35-4-15.15-6.59-24.47,2.47,8.92,4.13,14.85,6.82,24.42s4.56,16.18,7.53,26.68l.76,2.66,1.61,5.68c2.93,10.31,6.93,24.42,14.67,51.46q2.76,9.83,5.53,19.64l1.87,6.64c8,28.39,15.47,55.08,22.25,79.35.6,2.15,1.41,5,2,7.19l6.87,24.63c5.17,18.56,8.76,31.53,10.06,36.25q3.06,11.28,6.1,22.57c.58,2.17,1.37,5.08,2,7.25l1.68,6.24c9.27,34.55,15.8,59.27,18.86,70.93l1.21,4.68,1.79,7c3.68,14.37,10.54,41.1,19,75.48l1.53,6.2c2.2,9,4.47,18.22,8.3,34.12,1.93,8.37,4.12,17.85,7.12,31.24"/><path d="M636.6,563.72c.23,1.64.53,3.83.74,5.47,1.17,10,3.61,30.75,1,54.53-.17,1.32-.38,3.08-.57,4.39l-.41,2.72c-5.36,29.55-16,48.79-34.45,62.37l-8.29,5.73,2.8-2c14.19-12,24.52-27,28.8-60.82.13-1.29.32-3,.44-4.31.62-8.13,1.91-25.07-2-53.77-.24-1.63-.55-3.8-.81-5.43-1.33-8.11-2.6-15.77-6.3-31.51-2.11-8.81-4.1-17.13-9.08-33.65-.59-1.88-1.36-4.38-2-6.26a673.51,673.51,0,0,0-27.53-71.45c-.91-2-2.11-4.69-3-6.69l-2-4.2c-5.52-11.84-15.8-33.87-33.19-64.56l-3.11-5.46c-1.17-2-2.72-4.68-3.89-6.69-3.67-6.19-6.83-11.54-12-19.82-4.33-7-10.88-17.55-20.35-31.68-5.1-7.55-7.91-11.7-14.56-21.08-1.37-1.9-3.18-4.45-4.56-6.35-15.43-21.11-30.27-40.35-52.56-65.6-1.49-1.66-3.47-3.89-5-5.54-3.83-4.18-8.58-9.39-14.47-15.53-8.5-8.84-21.36-22.22-41.11-39.58-1.52-1.32-3.54-3.08-5.07-4.39l-2.23-1.89c-9.75-8.14-14.73-12.09-24.25-19.25-9.85-7.21-14.6-10.49-24.19-16.69,9.83,6.34,14.62,9.59,24.39,16.56,9.88,7.22,15,11.11,24.73,18.91l2.29,1.86c1.56,1.28,3.65,3,5.21,4.28,8.83,7.42,22.19,18.63,42.7,38.49,4.22,4.17,9,8.89,15.05,15.12,1.56,1.62,3.63,3.76,5.18,5.39,17.34,18.33,33.37,36.18,55.27,63.74,1.45,1.85,3.38,4.3,4.82,6.15,5.53,7.17,8.58,11.13,15.47,20.45,4.89,6.7,12.27,16.82,21.71,30.74,4,6,7.47,11.23,12.64,19.37,1.23,2,2.88,4.56,4.1,6.53l3.3,5.33c7,11.52,20,33,35.1,63.23l2,4.16c1,2,2.22,4.61,3.16,6.59a644,644,0,0,1,28.61,70.72c.61,1.86,1.43,4.33,2,6.19,2.82,9.06,5.49,17.62,9.36,33.47,1.64,7.25,4.11,18.22,6,31.71"/><path d="M743.55,442.89l.47,5.58a201.31,201.31,0,0,1-4.84,61.42l-1.31,5.1-1,3.4a190.77,190.77,0,0,1-10.44,27.5l-2.93,6c-1.46,2.85-3.38,6.68-4.88,9.51,5.66-11.22,9.39-19,14.47-37l1.26-5c2.31-10.45,6.6-29.91,4.39-60.51l-.49-5.54A248.42,248.42,0,0,0,732.77,421a286.44,286.44,0,0,0-9.91-33l-2.18-5.76c-4.76-11.86-13.62-33.94-34.06-65.08l-3.77-5.6-2.58-3.73a443.8,443.8,0,0,0-44-53.52l-4.3-4.43c-1.53-1.53-3.55-3.58-5.09-5.1-5-4.85-9.31-9.05-16.4-15.45-6-5.33-15-13.39-28.13-23.75-7.11-5.52-11-8.56-20.4-15.28-1.84-1.3-4.3-3-6.15-4.33a544.71,544.71,0,0,0-74.48-43.24c-2-1-4.77-2.27-6.83-3.22-5.74-2.61-12.25-5.56-20.79-9.09a511.46,511.46,0,0,0-59.35-20.57l-7.08-1.91-3.35-.87c-14.3-3.52-21.2-5-35.2-7.56-14.17-2.37-21.41-3.35-35.24-4.77,14.32,1.47,21.25,2.37,35.32,4.61,14.21,2.48,21.49,4,35.4,7.17l3.38.82,7.12,1.8a556.71,556.71,0,0,1,60,19.28c5.88,2.32,12.55,4.94,21,8.61,2.08.91,4.85,2.12,6.91,3a564.65,564.65,0,0,1,75.6,41.05c1.87,1.23,4.38,2.86,6.25,4.11,7.42,5,11.51,7.78,20.77,14.54,6.49,4.84,16.3,12.15,28.69,22.64,5.29,4.58,9.85,8.53,16.68,14.91,1.55,1.48,3.63,3.43,5.17,4.92l4.38,4.28a430.93,430.93,0,0,1,44.82,52l2.62,3.67,3.81,5.49a334.67,334.67,0,0,1,34.52,64.22l2.19,5.68a278.49,278.49,0,0,1,10,32.78,250.21,250.21,0,0,1,5.41,32.58"/><path d="M748,274.94c3.4,12.27,3.47,12.5,5,19.09l.05.23,0-.17a232.83,232.83,0,0,0-10.17-32.37l-2.09-5.09c-4.9-11.16-14-31.94-35.49-58.45l-3.66-4.38-2.82-3.25a281.87,281.87,0,0,0-46.14-41.78L648,145.44l-5-3.4c-5.48-3.58-9.81-6.41-17.39-10.82-6.28-3.57-15.76-9-29.63-15.33-7.76-3.47-11.66-5.22-21.69-9.11l-6-2.25c-22.83-8-45-14.43-78.82-19.5l-6.71-.91c-6.35-.75-12.92-1.53-22.09-2.23A444.13,444.13,0,0,0,398,81.48L391,82l-3.77.32c-14.83,1.41-22.42,2.38-36.92,4.71-14.85,2.62-22.43,4.21-36.91,7.73,15-3.64,22.21-5.19,36.87-7.88,15-2.52,22.2-3.52,36.81-5.09l3.77-.36,6.89-.59a472.7,472.7,0,0,1,62.35-.8c6.41.41,13,.84,22,1.77l6.64.75C513.5,85.74,536.29,89.93,567,100l6,2.05c7.89,2.88,11.85,4.32,21.51,8.41,6.65,2.92,16.69,7.34,29.35,14.29,5.66,3.21,10.13,5.75,17.27,10.32l4.92,3.23,4.66,3.2c13.74,9.85,28.78,21.55,45.73,40.31l2.82,3.19,3.61,4.26a233.58,233.58,0,0,1,35.29,57.65l2.05,5c1.89,4.93,3.84,10,6.06,17.2l1.75,5.87"/><path d="M593.17,64.09l1.58,1.07c-2.39-1.56-5.6-3.6-8-5.09l-4.19-2.42-3.63-2c-4.77-2.43-8.23-4.18-14.74-6.9a194,194,0,0,0-24.57-8.21c-6.64-1.63-9.67-2.37-18.19-3.81l-4.3-.64c-22.79-2.87-40.32-2.67-64.68.72l-4.68.75c-5.61,1-10.45,1.88-18.08,3.69A304.78,304.78,0,0,0,379.34,58l-4.75,2.08-3.34,1.52c-11.7,5.51-17.67,8.59-29,15C330.46,83.45,324.81,87,313.44,94.73c11.62-7.89,17.23-11.48,28.61-18.26,11.64-6.68,17.26-9.67,28.62-15.24L374,59.67l4.64-2.13a321.22,321.22,0,0,1,49-17.59c5.52-1.4,10.29-2.6,17.58-4l4.51-.84c23.74-3.89,40.65-4.49,62.4-2.21l4.08.52c6.5,1,9.47,1.46,17.41,3.31A176.53,176.53,0,0,1,557,44.18c4.77,2,8.21,3.46,14.18,6.54l3.44,1.85,4,2.32,1.73,1c3.85,2.43,9,5.65,12.8,8.16"/><path d="M422.64,2.25a57.82,57.82,0,0,0-6.12-.37l-1.83,0c-5.86.3-18,.91-34.92,11.26l-1.85,1.17c-3.13,2.1-5.39,3.62-9.44,6.86-5.25,4.33-13.18,10.88-25,25.61L341.74,49l-1.85,2.44c-5.52,7.53-8.3,11.65-13.51,20-5.31,8.83-8,13.6-12.94,23.23,5.13-10,7.62-14.52,12.71-23.26s7.77-12.62,13-20.09l1.75-2.45,1.63-2.22a173.58,173.58,0,0,1,23.15-25.79c2.9-2.47,5-4.26,8.72-6.94L376,12.82c5.42-3.55,16.7-10.93,31.73-11.58l1.61,0c1.27,0,3,.09,4.24.18l9,.87"/><path d="M291.41,10.69l.93-.22c0,.76.07,1.42,1.91,9.13l.14.58c.46,1.93.83,3.45,1.54,6.34,1.19,5.07,2.63,11.09,5.89,23.91l.29,1.15.7,2.72c1.86,7.26,2.72,10.57,4.85,18.66,2.16,8.26,3.35,12.74,5.78,21.77-2.52-9.3-3.7-13.56-6-21.71C305.14,65.09,304,61.28,302,54.5l-.82-2.69-.35-1.12c-2.34-7.51-4.71-14.95-7.86-23.43-.82-2.23-1.37-3.71-2.35-6.15l-.21-.53c-1.87-4.44-3.78-8.53-5.12-8.35l6.14-1.54"/></g></g></svg>