<svg xmlns="http://www.w3.org/2000/svg" viewBox="0 0 1177.03 200.32"><defs><style>.cls-1{fill:none;stroke:#000;stroke-width:0.75px;}</style></defs><title>text</title><g id="Layer_2" data-name="Layer 2"><g id="Layer_1-2" data-name="Layer 1"><polygon class="cls-1" points="16.35 23.09 0.38 23.09 0.38 2.28 60.89 2.28 60.89 23.09 44.92 23.09 44.92 81.59 16.35 81.59 16.35 23.09"/><polygon class="cls-1" points="32.32 72.08 32.32 14.64 50.89 14.64 50.89 11.79 10.38 11.79 10.38 14.64 28.95 14.64 28.95 72.08 32.32 72.08"/><polygon class="cls-1" points="55.05 2.28 106.08 2.28 106.08 23.09 82.71 23.09 82.71 31.89 105.69 31.89 105.69 51.62 82.71 51.62 82.71 60.78 106.99 60.78 106.99 81.59 55.05 81.59 55.05 2.28"/><polygon class="cls-1" points="97.38 72.08 97.38 69.22 71.41 69.22 71.41 43.18 96.08 43.18 96.08 40.33 71.41 40.33 71.41 14.64 97.38 14.64 97.38 11.79 68.03 11.79 68.03 72.08 97.38 72.08"/><path class="cls-1" d="M102.45,42a39.65,39.65,0,0,1,3.63-17.18A40.26,40.26,0,0,1,116,11.67,43.86,43.86,0,0,1,130.5,3.29,53,53,0,0,1,148.16.38a60.16,60.16,0,0,1,13.18,1.3,67.28,67.28,0,0,1,9.93,3,47.06,47.06,0,0,1,8.32,4.16L166,30.81a46.38,46.38,0,0,0-4.55-2.73,46.09,46.09,0,0,0-5.25-1.84,24.67,24.67,0,0,0-7-.89,20.42,20.42,0,0,0-7.41,1.3,19.35,19.35,0,0,0-5.9,3.57,16.38,16.38,0,0,0-4,5.29A14.9,14.9,0,0,0,130.5,42,14.4,14.4,0,0,0,132,48.47a16.67,16.67,0,0,0,4.09,5.29,19.62,19.62,0,0,0,6.1,3.57,21.82,21.82,0,0,0,7.67,1.31,26.52,26.52,0,0,0,7.4-1,29.07,29.07,0,0,0,5.45-2.14,20.33,20.33,0,0,0,4.55-3.09l13.63,22a39.11,39.11,0,0,1-8.31,4.64,74.74,74.74,0,0,1-10,3.09,56.62,56.62,0,0,1-13.37,1.43,55.69,55.69,0,0,1-18.7-3,44.94,44.94,0,0,1-14.81-8.5A38.81,38.81,0,0,1,106,58.94,40.29,40.29,0,0,1,102.45,42Z"/><path class="cls-1" d="M118.81,42A26.84,26.84,0,0,1,121,31.29a25.85,25.85,0,0,1,6-8.68,28.45,28.45,0,0,1,9.48-5.83,34.74,34.74,0,0,1,12.47-2.14,39.11,39.11,0,0,1,6,.42,29.38,29.38,0,0,1,4.48,1,17.82,17.82,0,0,1,3.76,1.43L165,14.64c-1.39-.55-2.86-1.07-4.41-1.54s-3.17-.75-5.07-1.07a40.32,40.32,0,0,0-6.62-.48,37.74,37.74,0,0,0-12.66,2.14,32.86,32.86,0,0,0-10.65,6.13,30.28,30.28,0,0,0-7.41,9.63A27.92,27.92,0,0,0,115.43,42a28.18,28.18,0,0,0,10,22.18,33.55,33.55,0,0,0,10.91,6.12,40.45,40.45,0,0,0,13.25,2.14,38.22,38.22,0,0,0,7-.59,46.55,46.55,0,0,0,5.32-1.31,27.06,27.06,0,0,0,4.42-1.9l-1.82-2.86a16.82,16.82,0,0,1-3.89,1.79A32.4,32.4,0,0,1,156,68.81a34,34,0,0,1-6.36.53,36.36,36.36,0,0,1-12.86-2.14,28.85,28.85,0,0,1-9.67-5.83A25.25,25.25,0,0,1,121,52.69,26.8,26.8,0,0,1,118.81,42Z"/><polygon class="cls-1" points="173.74 2.28 201.4 2.28 201.4 29.27 216.86 29.27 216.86 2.28 244.65 2.28 244.65 81.59 216.86 81.59 216.86 52.22 201.4 52.22 201.4 81.59 173.74 81.59 173.74 2.28"/><polygon class="cls-1" points="190.1 72.08 190.1 41.99 228.28 41.99 228.28 72.08 231.66 72.08 231.66 11.79 228.28 11.79 228.28 39.14 190.1 39.14 190.1 11.79 186.73 11.79 186.73 72.08 190.1 72.08"/><polygon class="cls-1" points="243.35 2.28 266.07 2.28 289.97 32.84 289.97 2.28 317.11 2.28 317.11 81.59 294.25 81.59 270.49 51.15 270.49 81.59 243.35 81.59 243.35 2.28"/><polygon class="cls-1" points="258.8 72.08 258.8 17.14 301.66 72.08 305.03 72.08 305.03 11.79 301.66 11.79 301.66 66.72 258.8 11.79 255.43 11.79 255.43 72.08 258.8 72.08"/><path class="cls-1" d="M313.86,42a37.59,37.59,0,0,1,3.57-16.17,42.1,42.1,0,0,1,9.74-13.26,46.48,46.48,0,0,1,14.48-8.91,49.35,49.35,0,0,1,35.33,0,46.48,46.48,0,0,1,14.48,8.91,42.1,42.1,0,0,1,9.74,13.26,38.41,38.41,0,0,1,0,32.34,41.88,41.88,0,0,1-9.74,13.26A46.32,46.32,0,0,1,377,80.34a49.35,49.35,0,0,1-35.33,0,46.32,46.32,0,0,1-14.48-8.92,41.88,41.88,0,0,1-9.74-13.26A37.59,37.59,0,0,1,313.86,42Z"/><path class="cls-1" d="M326.07,42a27.48,27.48,0,0,0,2.6,11.83,30.63,30.63,0,0,0,7.14,9.69,33.74,33.74,0,0,0,10.58,6.54,36.29,36.29,0,0,0,25.85,0,33.74,33.74,0,0,0,10.58-6.54A30.63,30.63,0,0,0,390,53.82a28.21,28.21,0,0,0,0-23.66,30.74,30.74,0,0,0-7.14-9.69,34.11,34.11,0,0,0-10.58-6.54,36.29,36.29,0,0,0-25.85,0,34.11,34.11,0,0,0-10.58,6.54,30.74,30.74,0,0,0-7.14,9.69A27.52,27.52,0,0,0,326.07,42Z"/><path class="cls-1" d="M359.32,69.34a31.15,31.15,0,0,1-11.63-2.14,30.72,30.72,0,0,1-9.48-5.89,27.88,27.88,0,0,1-6.43-8.68,25.46,25.46,0,0,1,0-21.28,28,28,0,0,1,6.43-8.68,30.72,30.72,0,0,1,9.48-5.89,32.64,32.64,0,0,1,23.25,0,30.72,30.72,0,0,1,9.48,5.89,27.84,27.84,0,0,1,6.43,8.68,25.36,25.36,0,0,1,0,21.28,27.73,27.73,0,0,1-6.43,8.68,30.72,30.72,0,0,1-9.48,5.89A31.14,31.14,0,0,1,359.32,69.34Z"/><path class="cls-1" d="M341.13,42a15,15,0,0,0,1.43,6.48,16.83,16.83,0,0,0,3.9,5.29,18.38,18.38,0,0,0,5.78,3.57,19.76,19.76,0,0,0,14.15,0,18.38,18.38,0,0,0,5.78-3.57,16.83,16.83,0,0,0,3.9-5.29,15.4,15.4,0,0,0,0-13,16.94,16.94,0,0,0-3.9-5.29,18.75,18.75,0,0,0-5.78-3.57,19.9,19.9,0,0,0-14.15,0,18.75,18.75,0,0,0-5.78,3.57,16.94,16.94,0,0,0-3.9,5.29A15,15,0,0,0,341.13,42Z"/><polygon class="cls-1" points="401.52 2.28 430.35 2.28 430.35 60.78 454.25 60.78 454.25 81.59 401.52 81.59 401.52 2.28"/><polygon class="cls-1" points="446.97 72.08 446.97 69.22 417.88 69.22 417.88 11.79 414.51 11.79 414.51 72.08 446.97 72.08"/><path class="cls-1" d="M446.45,42A37.59,37.59,0,0,1,450,25.82a42.1,42.1,0,0,1,9.74-13.26,46.48,46.48,0,0,1,14.48-8.91,49.35,49.35,0,0,1,35.33,0,46.48,46.48,0,0,1,14.48,8.91,42.1,42.1,0,0,1,9.74,13.26,38.41,38.41,0,0,1,0,32.34,41.88,41.88,0,0,1-9.74,13.26,46.32,46.32,0,0,1-14.48,8.92,49.35,49.35,0,0,1-35.33,0,46.32,46.32,0,0,1-14.48-8.92A41.88,41.88,0,0,1,450,58.16,37.59,37.59,0,0,1,446.45,42Z"/><path class="cls-1" d="M458.66,42a27.34,27.34,0,0,0,2.6,11.83,30.63,30.63,0,0,0,7.14,9.69A33.74,33.74,0,0,0,479,70.05a36.29,36.29,0,0,0,25.85,0,33.74,33.74,0,0,0,10.58-6.54,30.63,30.63,0,0,0,7.14-9.69,28.21,28.21,0,0,0,0-23.66,30.74,30.74,0,0,0-7.14-9.69,34.11,34.11,0,0,0-10.58-6.54,36.29,36.29,0,0,0-25.85,0,34.11,34.11,0,0,0-10.58,6.54,30.74,30.74,0,0,0-7.14,9.69A27.37,27.37,0,0,0,458.66,42Z"/><path class="cls-1" d="M491.91,69.34a31.15,31.15,0,0,1-11.63-2.14,30.72,30.72,0,0,1-9.48-5.89,27.88,27.88,0,0,1-6.43-8.68,25.46,25.46,0,0,1,0-21.28,28,28,0,0,1,6.43-8.68,30.72,30.72,0,0,1,9.48-5.89,32.64,32.64,0,0,1,23.25,0A30.72,30.72,0,0,1,513,22.67a27.84,27.84,0,0,1,6.43,8.68A24.52,24.52,0,0,1,521.77,42a24.46,24.46,0,0,1-2.33,10.64A27.73,27.73,0,0,1,513,61.31a30.72,30.72,0,0,1-9.48,5.89A31.14,31.14,0,0,1,491.91,69.34Z"/><path class="cls-1" d="M473.72,42a15,15,0,0,0,1.43,6.48,16.67,16.67,0,0,0,3.9,5.29,18.38,18.38,0,0,0,5.78,3.57,19.76,19.76,0,0,0,14.15,0,18.38,18.38,0,0,0,5.78-3.57,16.83,16.83,0,0,0,3.9-5.29,15.4,15.4,0,0,0,0-13,16.94,16.94,0,0,0-3.9-5.29A18.75,18.75,0,0,0,499,26.65a19.9,19.9,0,0,0-14.15,0,18.75,18.75,0,0,0-5.78,3.57,16.79,16.79,0,0,0-3.9,5.29A15,15,0,0,0,473.72,42Z"/><path class="cls-1" d="M589.3,29.27a16.16,16.16,0,0,0-5.84-2.91,24.55,24.55,0,0,0-6.88-1,18.41,18.41,0,0,0-6.89,1.24A16.82,16.82,0,0,0,564.3,30a15.93,15.93,0,0,0-3.57,5.29,17.15,17.15,0,0,0-1.3,6.66,15.91,15.91,0,0,0,5.33,11.95,18.1,18.1,0,0,0,5.78,3.45,19.92,19.92,0,0,0,7.07,1.25,18.58,18.58,0,0,0,8.06-1.73,18.87,18.87,0,0,0,6.23-4.69h-7.79V35.57h33.37V62a44.33,44.33,0,0,1-7.14,8.86,45.19,45.19,0,0,1-9.28,6.83A46.82,46.82,0,0,1,590,82.06a49,49,0,0,1-12.34,1.55A48.59,48.59,0,0,1,560,80.4a45.92,45.92,0,0,1-14.48-8.8,41.41,41.41,0,0,1-9.74-13.2A38.13,38.13,0,0,1,532.16,42a39.42,39.42,0,0,1,3.38-16.17,41.39,41.39,0,0,1,9.28-13.26,43.78,43.78,0,0,1,14-8.91A46.29,46.29,0,0,1,576.32.38a53.43,53.43,0,0,1,12.59,1.3,51.48,51.48,0,0,1,9,3A32.87,32.87,0,0,1,605,8.82Z"/><path class="cls-1" d="M590.6,13.93a22.46,22.46,0,0,0-3.76-1.19,42.68,42.68,0,0,0-4.29-.83,37.94,37.94,0,0,0-5.45-.36,36.18,36.18,0,0,0-12.86,2.26,32.64,32.64,0,0,0-10.39,6.24,28.77,28.77,0,0,0-7,9.58A29.54,29.54,0,0,0,544.37,42a28.55,28.55,0,0,0,9.74,21.94,33.75,33.75,0,0,0,10.58,6.24,36.49,36.49,0,0,0,12.92,2.26,34.13,34.13,0,0,0,16.24-3.86,33.59,33.59,0,0,0,11.82-10.29V42.71H591.9v2.85h10.39V57.45a28.65,28.65,0,0,1-10.45,8.68,31.42,31.42,0,0,1-14.23,3.21,33.67,33.67,0,0,1-11.62-2,29.24,29.24,0,0,1-9.48-5.59A25.91,25.91,0,0,1,547.75,42,26.74,26.74,0,0,1,550,30.87a26.23,26.23,0,0,1,6.23-8.68,27.83,27.83,0,0,1,9.29-5.58,33.13,33.13,0,0,1,11.56-2,25.91,25.91,0,0,1,4.41.36c1.38.24,2.6.48,3.64.71,1.21.32,2.33.64,3.37,1Z"/><polygon class="cls-1" points="621.64 47.46 594.76 2.28 625.54 2.28 635.54 19.04 645.4 2.28 676.18 2.28 649.3 47.46 649.3 81.59 621.64 81.59 621.64 47.46"/><polygon class="cls-1" points="637.22 72.08 637.22 43.66 656.18 11.79 652.16 11.79 635.54 39.97 618.78 11.79 614.89 11.79 633.72 43.66 633.72 72.08 637.22 72.08"/><polygon class="cls-1" points="716.83 2.28 737.61 2.28 770.46 81.59 743.19 81.59 740.33 74.45 714.1 74.45 711.24 81.59 683.97 81.59 716.83 2.28"/><polygon class="cls-1" points="703.32 72.08 705.79 66.13 748.64 66.13 751.11 72.08 754.75 72.08 729.68 11.79 724.75 11.79 699.69 72.08 703.32 72.08"/><polygon class="cls-1" points="727.22 14.64 747.48 63.28 706.96 63.28 727.22 14.64"/><polygon class="cls-1" points="733.06 56.97 727.22 43.06 721.37 56.97 733.06 56.97"/><polygon class="cls-1" points="773.45 23.09 757.48 23.09 757.48 2.28 817.99 2.28 817.99 23.09 802.02 23.09 802.02 81.59 773.45 81.59 773.45 23.09"/><polygon class="cls-1" points="789.42 72.08 789.42 14.64 807.99 14.64 807.99 11.79 767.48 11.79 767.48 14.64 786.04 14.64 786.04 72.08 789.42 72.08"/><polygon class="cls-1" points="836.17 2.28 865.52 2.28 875.52 29.98 885.52 2.28 904.48 2.28 914.48 29.98 924.48 2.28 953.83 2.28 925.26 81.59 903.7 81.59 895 57.57 886.3 81.59 864.74 81.59 836.17 2.28"/><polygon class="cls-1" points="877.73 72.08 895 22.25 912.27 72.08 915.52 72.08 937.21 11.79 933.7 11.79 913.96 66.61 895 11.79 876.04 66.61 856.3 11.79 852.79 11.79 874.48 72.08 877.73 72.08"/><path class="cls-1" d="M943.44,42A37.59,37.59,0,0,1,947,25.82a42.1,42.1,0,0,1,9.74-13.26,46.37,46.37,0,0,1,14.48-8.91,49.32,49.32,0,0,1,35.32,0A46.37,46.37,0,0,1,1021,12.56a42.1,42.1,0,0,1,9.74,13.26,38.41,38.41,0,0,1,0,32.34A41.88,41.88,0,0,1,1021,71.42a46.21,46.21,0,0,1-14.48,8.92,49.32,49.32,0,0,1-35.32,0,46.21,46.21,0,0,1-14.48-8.92A41.88,41.88,0,0,1,947,58.16,37.59,37.59,0,0,1,943.44,42Z"/><path class="cls-1" d="M955.65,42a27.48,27.48,0,0,0,2.59,11.83,30.51,30.51,0,0,0,7.15,9.69A33.63,33.63,0,0,0,976,70.05a36.26,36.26,0,0,0,25.84,0,33.79,33.79,0,0,0,10.59-6.54,30.63,30.63,0,0,0,7.14-9.69,28.21,28.21,0,0,0,0-23.66,30.74,30.74,0,0,0-7.14-9.69,34.16,34.16,0,0,0-10.59-6.54,36.26,36.26,0,0,0-25.84,0,34,34,0,0,0-10.58,6.54,30.62,30.62,0,0,0-7.15,9.69A27.51,27.51,0,0,0,955.65,42Z"/><path class="cls-1" d="M988.89,69.34a31.14,31.14,0,0,1-11.62-2.14,30.6,30.6,0,0,1-9.48-5.89,27.73,27.73,0,0,1-6.43-8.68,25.36,25.36,0,0,1,0-21.28,27.84,27.84,0,0,1,6.43-8.68,30.6,30.6,0,0,1,9.48-5.89,32.62,32.62,0,0,1,23.24,0,30.49,30.49,0,0,1,9.48,5.89,27.84,27.84,0,0,1,6.43,8.68,25.36,25.36,0,0,1,0,21.28,27.73,27.73,0,0,1-6.43,8.68,30.49,30.49,0,0,1-9.48,5.89A31.1,31.1,0,0,1,988.89,69.34Z"/><path class="cls-1" d="M970.71,42a15,15,0,0,0,1.43,6.48A16.8,16.8,0,0,0,976,53.76a18.61,18.61,0,0,0,5.78,3.57,19.79,19.79,0,0,0,14.16,0,18.49,18.49,0,0,0,5.78-3.57,16.8,16.8,0,0,0,3.89-5.29,15.4,15.4,0,0,0,0-13,16.91,16.91,0,0,0-3.89-5.29A18.87,18.87,0,0,0,996,26.65,19.27,19.27,0,0,0,976,30.22a16.91,16.91,0,0,0-3.89,5.29A15,15,0,0,0,970.71,42Z"/><path class="cls-1" d="M1031.1,2.28H1061a55.72,55.72,0,0,1,15.38,2,37.23,37.23,0,0,1,12.28,5.94,27.62,27.62,0,0,1,8.11,9.7,28.88,28.88,0,0,1,2.93,13.25,25.2,25.2,0,0,1-1.82,10.11,30.63,30.63,0,0,1-4,6.9,27.23,27.23,0,0,1-5.84,5.23l16.23,26.16h-32.47l-13-20.1v20.1H1031.1Z"/><path class="cls-1" d="M1058.11,54a50.36,50.36,0,0,0,9.87-1l12.33,19h4l-13-20a24.53,24.53,0,0,0,11.17-7q4.15-4.7,4.16-12.18a18.4,18.4,0,0,0-2.21-9.16,19.82,19.82,0,0,0-6-6.6,28.11,28.11,0,0,0-9-4,44.41,44.41,0,0,0-11.3-1.37h-14V72.08h3.38V54Z"/><path class="cls-1" d="M1047.46,51.15V14.64h10.65q11.82,0,18.5,4.76T1083.3,33q0,8.79-6.69,13.49t-18.5,4.7Z"/><path class="cls-1" d="M1058.76,41.28h1.43a16.22,16.22,0,0,0,8.37-2q3.43-2,3.44-6.78t-3.44-6.78a16.22,16.22,0,0,0-8.37-2h-1.43Z"/><polygon class="cls-1" points="1096.42 2.28 1124.47 2.28 1124.47 20.59 1140.83 2.28 1174.73 2.28 1144.21 38.54 1176.29 81.59 1142.91 81.59 1124.47 57.09 1124.47 81.59 1096.42 81.59 1096.42 2.28"/><polygon class="cls-1" points="1112.78 72.08 1112.78 56.02 1126.29 40.68 1149.92 72.08 1153.95 72.08 1128.63 38.19 1151.87 11.79 1147.71 11.79 1112.78 51.27 1112.78 11.79 1109.4 11.79 1109.4 72.08 1112.78 72.08"/><polygon class="cls-1" points="365.61 118.61 416.65 118.61 416.65 139.42 393.27 139.42 393.27 148.22 416.26 148.22 416.26 167.96 393.27 167.96 393.27 197.92 365.61 197.92 365.61 118.61"/><polygon class="cls-1" points="381.98 188.41 381.98 159.51 406.65 159.51 406.65 156.66 381.98 156.66 381.98 130.98 407.95 130.98 407.95 128.12 378.6 128.12 378.6 188.41 381.98 188.41"/><path class="cls-1" d="M411.46,158.33A37.66,37.66,0,0,1,415,142.15a41.8,41.8,0,0,1,9.74-13.25A46.21,46.21,0,0,1,439.25,120a49.32,49.32,0,0,1,35.32,0,46.21,46.21,0,0,1,14.48,8.92,42,42,0,0,1,9.74,13.25,38.43,38.43,0,0,1,0,32.35,42,42,0,0,1-9.74,13.25,46.21,46.21,0,0,1-14.48,8.92,49.32,49.32,0,0,1-35.32,0,46.21,46.21,0,0,1-14.48-8.92A41.8,41.8,0,0,1,415,174.5,37.65,37.65,0,0,1,411.46,158.33Z"/><path class="cls-1" d="M423.66,158.33a27.52,27.52,0,0,0,2.6,11.83,30.85,30.85,0,0,0,7.14,9.69A34,34,0,0,0,444,186.39a36.26,36.26,0,0,0,25.84,0,34,34,0,0,0,10.58-6.54,31,31,0,0,0,7.15-9.69,28.34,28.34,0,0,0,0-23.67,31,31,0,0,0-7.15-9.69,34,34,0,0,0-10.58-6.54,36.4,36.4,0,0,0-25.84,0,34,34,0,0,0-10.59,6.54,30.85,30.85,0,0,0-7.14,9.69A27.53,27.53,0,0,0,423.66,158.33Z"/><path class="cls-1" d="M456.91,185.67a31.1,31.1,0,0,1-11.62-2.14,30.28,30.28,0,0,1-9.48-5.88,27.84,27.84,0,0,1-6.43-8.68,25.38,25.38,0,0,1,0-21.29,28,28,0,0,1,6.43-8.68,30.46,30.46,0,0,1,9.48-5.88,32.62,32.62,0,0,1,23.24,0A30.69,30.69,0,0,1,478,139a28,28,0,0,1,6.43,8.68,25.38,25.38,0,0,1,0,21.29,27.84,27.84,0,0,1-6.43,8.68,30.51,30.51,0,0,1-9.48,5.88A31.14,31.14,0,0,1,456.91,185.67Z"/><path class="cls-1" d="M438.73,158.33a14.93,14.93,0,0,0,1.43,6.48,16.91,16.91,0,0,0,3.89,5.29,18.66,18.66,0,0,0,5.78,3.56,19.31,19.31,0,0,0,19.94-3.56,16.91,16.91,0,0,0,3.89-5.29,15.4,15.4,0,0,0,0-13,16.84,16.84,0,0,0-3.89-5.3A18.77,18.77,0,0,0,464,143a19.79,19.79,0,0,0-14.16,0,18.66,18.66,0,0,0-5.78,3.56,16.84,16.84,0,0,0-3.89,5.3A14.9,14.9,0,0,0,438.73,158.33Z"/><path class="cls-1" d="M499.11,118.61H529a56.17,56.17,0,0,1,15.39,2,36.9,36.9,0,0,1,12.27,6,27.53,27.53,0,0,1,8.12,9.69,28.89,28.89,0,0,1,2.92,13.26,25,25,0,0,1-1.82,10.1,30,30,0,0,1-4,6.9,26.78,26.78,0,0,1-5.85,5.23l16.24,26.16H539.76l-13-20.09v20.09H499.11Z"/><path class="cls-1" d="M526.13,170.34a50.36,50.36,0,0,0,9.87-1l12.33,19h4l-13-20a24.51,24.51,0,0,0,11.17-7q4.15-4.69,4.16-12.19a18.4,18.4,0,0,0-2.21-9.16,20.12,20.12,0,0,0-6-6.6,28.16,28.16,0,0,0-9-4,44.33,44.33,0,0,0-11.29-1.37h-14v60.29h3.38V170.34Z"/><path class="cls-1" d="M515.48,167.48V131h10.65q11.8,0,18.5,4.75t6.69,13.56q0,8.81-6.69,13.49t-18.5,4.7Z"/><path class="cls-1" d="M526.77,157.61h1.43a16.28,16.28,0,0,0,8.38-2q3.43-2,3.44-6.78T536.58,142a16.28,16.28,0,0,0-8.38-2h-1.43Z"/><polygon class="cls-1" points="615.34 163.79 588.46 118.61 619.24 118.61 629.24 135.38 639.11 118.61 669.88 118.61 643 163.79 643 197.92 615.34 197.92 615.34 163.79"/><polygon class="cls-1" points="630.92 188.41 630.92 159.99 649.88 128.12 645.86 128.12 629.24 156.31 612.48 128.12 608.59 128.12 627.42 159.99 627.42 188.41 630.92 188.41"/><path class="cls-1" d="M650.4,158.33A37.53,37.53,0,0,1,654,142.15a41.77,41.77,0,0,1,9.73-13.25A46.32,46.32,0,0,1,678.19,120a49.35,49.35,0,0,1,35.33,0A46.32,46.32,0,0,1,728,128.9a42.1,42.1,0,0,1,9.74,13.25,38.43,38.43,0,0,1,0,32.35A42.1,42.1,0,0,1,728,187.75a46.32,46.32,0,0,1-14.48,8.92,49.35,49.35,0,0,1-35.33,0,46.32,46.32,0,0,1-14.48-8.92A41.77,41.77,0,0,1,654,174.5,37.51,37.51,0,0,1,650.4,158.33Z"/><path class="cls-1" d="M662.61,158.33a27.52,27.52,0,0,0,2.6,11.83,30.85,30.85,0,0,0,7.14,9.69,34.11,34.11,0,0,0,10.58,6.54,36.29,36.29,0,0,0,25.85,0,34.11,34.11,0,0,0,10.58-6.54,30.85,30.85,0,0,0,7.14-9.69,28.24,28.24,0,0,0,0-23.67,30.85,30.85,0,0,0-7.14-9.69,34.11,34.11,0,0,0-10.58-6.54,36.43,36.43,0,0,0-25.85,0,34.11,34.11,0,0,0-10.58,6.54,30.85,30.85,0,0,0-7.14,9.69A27.53,27.53,0,0,0,662.61,158.33Z"/><path class="cls-1" d="M695.86,185.67a31.15,31.15,0,0,1-11.63-2.14,30.51,30.51,0,0,1-9.48-5.88,28,28,0,0,1-6.43-8.68,25.48,25.48,0,0,1,0-21.29,28.12,28.12,0,0,1,6.43-8.68,30.69,30.69,0,0,1,9.48-5.88,32.64,32.64,0,0,1,23.25,0A30.69,30.69,0,0,1,717,139a28,28,0,0,1,6.43,8.68,25.38,25.38,0,0,1,0,21.29,27.84,27.84,0,0,1-6.43,8.68,30.51,30.51,0,0,1-9.48,5.88A31.14,31.14,0,0,1,695.86,185.67Z"/><path class="cls-1" d="M677.68,158.33a15.06,15.06,0,0,0,1.42,6.48,16.94,16.94,0,0,0,3.9,5.29,18.54,18.54,0,0,0,5.78,3.56,19.76,19.76,0,0,0,14.15,0,18.54,18.54,0,0,0,5.78-3.56,16.94,16.94,0,0,0,3.9-5.29,15.4,15.4,0,0,0,0-13,16.87,16.87,0,0,0-3.9-5.3,18.54,18.54,0,0,0-5.78-3.56,19.76,19.76,0,0,0-14.15,0,18.54,18.54,0,0,0-5.78,3.56,16.87,16.87,0,0,0-3.9,5.3A15,15,0,0,0,677.68,158.33Z"/><path class="cls-1" d="M773.51,199.94a53.52,53.52,0,0,1-14.8-1.9,31.35,31.35,0,0,1-11.3-5.71,25,25,0,0,1-7.21-9.63A34.2,34.2,0,0,1,737.67,169V118.61h27.66V168q0,4.15,1.89,6.36t6.29,2.2q4.43,0,6.3-2.2T781.7,168V118.61h27.79V169A34,34,0,0,1,807,182.7a24.63,24.63,0,0,1-7.27,9.63A32.06,32.06,0,0,1,788.32,198,53.55,53.55,0,0,1,773.51,199.94Z"/><path class="cls-1" d="M773.51,185.67q-19.47,0-19.48-17.48V128.12h-3.37v40.07q0,10,5.91,15.28t16.94,5.3q11,0,17-5.3t6-15.28V128.12H793v40.07Q793,185.68,773.51,185.67Z"/></g></g></svg>